<svg width="195" height="45" viewBox="0 0 195 45" fill="none" xmlns="http://www.w3.org/2000/svg">
<path d="M24.7965 28.4753C24.8067 31.9665 24.7763 35.4578 24.8523 38.9491C24.8726 39.8297 24.7231 40.6092 24.011 41.1635C23.1368 41.8421 22.1764 42.4585 21.1704 42.9687C20.4533 43.3339 19.8629 43.1163 19.4549 42.3445C17.1997 38.0789 15.806 33.5412 14.2122 29.0658C14.1083 28.7731 13.9917 28.4831 13.8828 28.193C13.7738 28.2033 13.6623 28.2137 13.5533 28.2241C13.4292 31.7257 13.0947 35.2377 13.2721 38.7263C13.3557 40.3943 10.5886 42.7486 9.00995 42.7693C8.27763 42.7796 8.05464 42.3367 7.93301 41.7851C7.52505 39.9307 7.28178 38.0245 6.64829 36.2348C5.36104 32.6089 3.80265 29.0632 2.46472 25.4502C1.59304 23.0959 0.784702 20.7132 0.176551 18.2941C-0.674861 14.9013 1.67918 12.8267 4.53243 11.8969C4.91252 11.7726 5.54855 11.8374 5.81969 12.0601C6.01734 12.2207 5.96919 12.8941 5.75127 13.1479C4.96574 14.0699 5.08484 15.0463 5.41425 16.0098C6.4177 18.952 7.47943 21.8761 8.52596 24.8079C8.54877 24.8726 8.62478 24.9193 8.76922 25.0747C8.79963 24.7431 8.83257 24.5152 8.83764 24.2873C8.91113 19.5477 8.98461 14.8106 9.04543 10.071C9.0581 9.17748 9.55729 8.49115 10.2567 7.97056C11.0118 7.41113 11.8455 6.89832 12.7298 6.53314C13.6395 6.15759 14.1514 6.45026 14.2375 7.32566C14.909 13.9637 17.4886 20.1667 19.4752 26.5069C19.5462 26.7296 19.6577 26.942 19.9009 27.1466C20.0656 25.4709 20.205 23.79 20.3951 22.1169C20.9424 17.3488 21.4847 12.5807 22.0827 7.81517C22.3614 5.60075 23.9629 4.31613 26.17 3.57799C27.1531 3.24907 27.6346 3.60648 27.5484 4.52851C26.5906 14.5957 29.2715 24.0827 33.1231 33.3677C34.0227 35.5329 35.3556 37.5142 37.4106 38.9853C40.084 40.8993 43.0411 41.4147 46.2846 40.2026C46.6723 40.0576 47.0676 39.8763 47.4755 39.8374C47.8582 39.8012 48.4156 39.8141 48.6057 40.0213C48.8008 40.2337 48.8109 40.8346 48.6133 41.0444C47.8049 41.8965 47.0296 42.9091 45.9805 43.4245C40.127 46.289 33.9492 45.2919 30.1153 40.0679C28.0578 37.263 26.9048 34.1007 25.8431 30.9098C25.5694 30.0914 25.3186 29.2678 25.055 28.4442C24.9663 28.4572 24.8802 28.4701 24.7915 28.4831L24.7965 28.4753Z" fill="url(#paint0_linear_8945_1387)"/>
<path d="M50.6384 28.7142C48.852 29.6414 47.3747 30.8405 47.5647 33.231C47.6103 33.8008 47.5368 34.4328 46.6803 34.4302C45.1524 34.425 43.7916 34.0365 42.5905 32.8037C45.5375 31.0607 47.1618 28.3282 48.3756 25.3135C49.5969 22.2729 50.5294 19.1339 50.1899 15.7903C49.8782 12.7367 48.0842 11.4754 45.1397 12.0918C44.6608 12.1928 44.1768 12.3301 43.7359 12.5373C39.3192 14.6196 36.1087 17.8674 34.6719 22.6951C34.231 24.1765 34.0511 25.759 34.1043 27.2871C34.3273 29.5015 34.7302 31.633 35.536 33.4382C35.8299 33.8837 36.0985 34.5726 36.3975 35.0129C39.0531 38.9186 43.3102 40.0893 47.3924 37.8645C48.6518 37.1781 49.7566 36.3597 50.6232 35.3678C51.8547 33.9588 52.6048 32.1976 52.6377 29.9703C52.6605 28.393 52.0447 27.9838 50.6409 28.7116L50.6384 28.7142ZM41.0017 30.7576C38.6502 27.4554 38.3791 21.9828 40.4063 18.6651C40.8066 18.0073 41.3514 17.3779 41.9672 16.935C43.3583 15.9379 44.6278 16.4585 45.0105 18.1549C45.5882 20.7086 44.8914 23.1431 44.1287 25.5259C43.5078 27.4632 42.7628 29.3798 41.0017 30.7576Z" fill="url(#paint1_linear_8945_1387)"/>
<path d="M57.7275 9.76285C57.8948 9.12313 58.0899 8.48859 58.2217 7.8411C58.7715 5.10351 60.7278 3.96911 63.1224 3.38896C64.6503 3.02119 65.6107 3.50033 66.1428 5.02064C66.9385 7.30239 67.5821 9.64112 68.2967 11.954C68.4107 12.3243 68.545 12.6895 68.7326 13.2412C69.4927 11.6509 70.1085 10.2213 70.8459 8.85896C71.9406 6.84138 73.2303 4.96625 75.3335 3.88882C75.8403 3.62983 76.3725 3.39414 76.9198 3.24392C79.0711 2.65082 79.4411 3.12737 79.4436 5.34438C79.4462 8.65953 79.621 11.985 79.92 15.2898C80.3888 20.4749 80.9361 25.6574 81.6203 30.8166C81.937 33.1994 82.3957 35.6029 83.8426 37.6593C84.0326 37.9287 83.8274 38.7393 83.5461 39.0605C82.4438 40.314 80.9868 40.9356 79.3524 41.0522C78.2375 41.1325 77.6141 40.3166 77.3379 39.4179C76.6005 37.0274 75.7694 34.6291 75.3994 32.1686C74.7583 27.9107 74.4365 23.6062 73.9779 19.3198C73.9272 18.8484 73.8537 18.3797 73.6282 17.9135C73.3165 21.2441 72.0495 24.5386 73.3469 27.8978C73.7372 28.9052 73.5243 29.6486 72.7464 30.2676C72.2979 30.625 71.824 30.9798 71.3045 31.2C68.0002 32.6011 67.4301 31.8708 66.5888 28.9078C65.4865 25.0281 64.2956 21.1742 63.1376 17.31C63.1046 17.1986 63.0058 17.1106 62.7651 16.7583C62.5776 20.2703 61.8858 23.4896 62.5218 26.7634C62.7524 27.9521 62.9196 29.1591 63.2136 30.3323C63.5658 31.7387 63.0438 32.6969 61.9061 33.3885C61.379 33.707 60.8316 34.0127 60.2564 34.2173C57.9987 35.0253 57.4437 34.6783 56.8153 32.3473C54.4587 23.6191 52.0768 14.8987 49.6923 6.17835C49.4465 5.27704 49.031 4.40682 48.8967 3.49256C48.8257 3.01083 49.036 2.18722 49.3781 1.99038C50.6857 1.2367 52.0667 0.565904 53.4882 0.0789914C54.3346 -0.211084 54.925 0.319858 55.1606 1.30922C55.8347 4.14005 56.5974 6.94757 57.3246 9.76544C57.4615 9.76544 57.5983 9.76544 57.7377 9.76544L57.7275 9.76285Z" fill="url(#paint2_linear_8945_1387)"/>
<path d="M87.5554 14.6803C88.8502 13.9655 90.0944 13.1108 91.4577 12.5747C93.1276 11.9169 94.2602 12.4193 95.3169 13.9111C99.0469 19.1869 99.0951 28.604 95.4031 33.9367C94.245 35.6098 92.7449 36.8711 90.8673 37.617C88.0951 38.7204 86.1262 38.0107 84.8466 35.2731C84.1599 33.8046 83.6531 32.2247 83.2527 30.6474C82.2417 26.6356 81.7729 22.5435 82.044 18.3969C82.2239 15.6542 82.9942 13.1808 85.5611 11.7459C86.1744 11.404 86.8357 11.1217 87.5047 10.9197C88.3739 10.6581 89.3621 10.6452 89.803 11.5594C90.2617 12.5125 89.3494 13.0461 88.7489 13.5926C88.3384 13.9655 87.8873 14.2944 87.4515 14.6415C87.487 14.6544 87.5199 14.6674 87.5554 14.6803ZM90.7 33.846C90.8875 33.8538 91.0725 33.859 91.26 33.8668C91.6528 32.7194 92.1495 31.5954 92.4231 30.4169C93.4798 25.8638 92.8691 21.5178 90.6316 17.4412C90.4264 17.0683 89.8436 16.7083 89.4305 16.7005C88.759 16.6876 88.0799 16.9699 87.1753 17.1796C87.3501 22.9242 87.7429 28.6713 90.7026 33.8486L90.7 33.846Z" fill="url(#paint3_linear_8945_1387)"/>
<path d="M111.761 23.529C110.925 27.2327 109.78 30.8068 106.288 32.9565C105.622 33.3657 104.899 33.7205 104.16 33.9588C102.061 34.6348 100.351 34.0002 99.4894 31.9568C97.4977 27.2327 97.2773 22.3299 98.9497 17.4892C99.3906 16.2176 100.554 14.9873 101.697 14.2388C103.356 13.1485 105.269 12.4259 107.137 11.711C108.475 11.1982 109.382 11.6981 110.228 13.2262C112.005 16.4325 112.24 19.9005 111.759 23.529H111.761ZM103.84 19.4421C103.681 22.4516 103.724 25.4663 105.041 28.5173C106.169 25.9092 106.46 22.6122 105.898 20.7914C105.125 20.2838 104.519 19.8849 103.84 19.4395V19.4421Z" fill="url(#paint4_linear_8945_1387)"/>
<path d="M118.165 19.0831C117.893 19.0443 117.388 18.928 117.233 18.6177C117.155 18.1911 117.039 16.097 117 15.6316V14.1579C117 12.4903 117.039 9 117.621 9H117.893C119.29 9.07756 122.512 9.23269 122.512 9.23269L122.745 9.46537C123.056 9.46537 123.987 9.42659 124.919 9.42659C128.257 9.42659 127.403 9.69806 129.81 9.69806C131.13 9.69806 132.954 9.65928 133.303 9.65928C133.614 9.65928 136.215 9.89197 136.525 9.93075H138.815L139.048 9.65928H142.037V13.5762C141.96 13.6925 141.843 14.1579 141.804 14.2742V14.4681C141.804 15.903 142.037 17.2992 142.037 18.6565C142.037 19.7036 142.037 20.0139 140.174 20.0139C138.699 20.0139 137.534 19.7812 137.185 19.7812C136.564 19.7812 135.128 19.8587 134.817 19.8587V20.4404C134.817 21.41 134.895 25.4432 134.895 27.3047C134.895 27.3823 134.662 29.8255 134.662 31.2604C134.662 31.4155 134.856 32.8892 134.895 33.0831V33.277L134.662 34.0138V34.2465C134.662 34.7507 134.934 35.2936 134.934 35.8366C134.934 36.4958 134.972 36.7673 133.847 36.7673C132.682 36.7673 132.721 36.5346 131.906 36.5346H129.654C128.063 36.5346 125.695 36.2244 125.695 35.8366L125.035 20.7119C124.996 20.4404 124.88 19.626 124.802 19.5485C124.802 19.1994 121.503 19.0443 120.144 19.0443C119.484 19.0443 118.824 19.0443 118.165 19.0831Z" fill="url(#paint5_linear_8945_1387)"/>
<path d="M156.985 36.4958C156.442 36.5346 155.937 36.5346 155.393 36.5346C152.482 36.5346 149.532 36.2632 146.582 36.2632H145.34C145.301 35.9529 145.107 34.3241 145.107 33.9751L144.835 29.4377C144.796 28.6233 144.602 27.5374 144.331 27.3823C144.408 27.3435 144.563 27.1884 144.563 27.1108C144.563 27.0332 144.331 26.1801 144.331 26.1025V25.3269C144.331 24.7839 144.563 20.3241 144.563 19.7812V19.2382C144.641 19.1994 144.952 19.0055 145.107 19.0055H155.238C155.277 19.0055 155.471 18.6565 155.51 18.5014C155.51 18.3463 155.393 17.6094 155.393 17.4931H151.822C151.201 17.4931 148.368 16.9889 148.251 16.446C148.212 16.3296 148.057 15.2825 147.979 14.9723V14.7008C147.979 13.8864 148.251 13.1884 148.251 12.374C148.251 12.1801 148.251 12.0249 147.979 11.9086V10.1247L148.756 9.6205C150.308 9.38781 150.619 9.31025 151.124 9.31025C153.181 9.31025 157.684 9.65928 160.711 9.65928C161.061 9.65928 161.449 9.65928 161.837 9.6205L162.07 9.89197H167.427C168.397 9.89197 168.397 11.8698 168.436 12.9169C168.475 14.0028 168.669 22.7285 168.669 23.8532C168.747 26.8781 169.018 29.8643 169.018 32.928C169.018 33.7424 168.98 35.9529 168.941 35.9917L168.436 36.4958H165.641L165.37 36.7673H157.528L156.985 36.4958ZM152.909 29.3601C152.909 29.8255 153.103 30.4072 153.453 30.4072H155.51C155.51 30.4072 155.665 28.8172 155.743 28.1191L155.51 26.374C155.355 26.2964 154.85 26.1413 154.734 26.1025H154.19C154.074 26.1413 153.336 26.2964 153.22 26.374C153.026 27.4986 152.909 28.313 152.909 29.3601Z" fill="url(#paint6_linear_8945_1387)"/>
<path d="M174.271 29.5928L173.185 19.3546C172.874 18.4626 172.913 17.9584 172.913 16.2909C172.913 15.903 173.068 10.0083 173.185 10.0083L173.379 9.77562C173.612 9.81441 174.233 9.81441 174.893 9.81441C176.639 9.81441 176.484 9.54294 177.687 9.54294H179.279C179.512 9.50416 181.414 9.31025 181.647 9.31025H191.933C194.068 9.58172 194.068 10.6288 194.301 12.6066C194.767 16.7562 195 20.867 195 25.0166C195 25.5208 194.961 27.8089 194.961 28.2742L194.728 28.7396C194.262 29.7091 193.525 30.6787 192.166 30.6787H191.235C190.458 31.1053 189.954 31.144 189.41 31.144C188.906 31.144 187.858 31.1053 187.741 31.1053C187.392 31.1828 185.723 31.4543 185.373 31.5706C185.218 32.8504 185.14 34.2465 185.14 35.5651V36.3407C185.14 36.3795 184.985 36.5346 184.946 36.5734H184.83C184.286 36.5734 183.859 36.3407 183.316 36.3407H182.54C182.501 36.3407 178.93 36.7673 176.872 36.7673L174.893 37L174.66 33.5097C174.582 32.4238 174.233 31.4931 174.233 30.3684C174.233 30.1357 174.233 29.903 174.271 29.5928ZM182.307 20.4404C182.656 20.9446 183.2 20.9058 183.743 20.9058H184.48C184.675 19.8199 184.713 19.4321 184.713 18.5014V17.8421C184.675 17.4931 184.558 15.9806 184.48 15.6704C183.976 15.6704 183.316 15.6316 182.811 15.6316C182.074 15.6316 181.841 15.6704 181.841 16.6399C181.841 16.9889 182.074 19.1219 182.307 20.4404Z" fill="url(#paint7_linear_8945_1387)"/>
<defs>
<linearGradient id="paint0_linear_8945_1387" x1="0" y1="22.5" x2="195" y2="22.5" gradientUnits="userSpaceOnUse">
<stop stop-color="#B53BFF"/>
<stop offset="1" stop-color="#07E993"/>
</linearGradient>
<linearGradient id="paint1_linear_8945_1387" x1="0" y1="22.5" x2="195" y2="22.5" gradientUnits="userSpaceOnUse">
<stop stop-color="#B53BFF"/>
<stop offset="1" stop-color="#07E993"/>
</linearGradient>
<linearGradient id="paint2_linear_8945_1387" x1="0" y1="22.5" x2="195" y2="22.5" gradientUnits="userSpaceOnUse">
<stop stop-color="#B53BFF"/>
<stop offset="1" stop-color="#07E993"/>
</linearGradient>
<linearGradient id="paint3_linear_8945_1387" x1="0" y1="22.5" x2="195" y2="22.5" gradientUnits="userSpaceOnUse">
<stop stop-color="#B53BFF"/>
<stop offset="1" stop-color="#07E993"/>
</linearGradient>
<linearGradient id="paint4_linear_8945_1387" x1="0" y1="22.5" x2="195" y2="22.5" gradientUnits="userSpaceOnUse">
<stop stop-color="#B53BFF"/>
<stop offset="1" stop-color="#07E993"/>
</linearGradient>
<linearGradient id="paint5_linear_8945_1387" x1="2.5" y1="23" x2="195" y2="23" gradientUnits="userSpaceOnUse">
<stop stop-color="#B53BFF"/>
<stop offset="1" stop-color="#07E993"/>
</linearGradient>
<linearGradient id="paint6_linear_8945_1387" x1="2.5" y1="23" x2="195" y2="23" gradientUnits="userSpaceOnUse">
<stop stop-color="#B53BFF"/>
<stop offset="1" stop-color="#07E993"/>
</linearGradient>
<linearGradient id="paint7_linear_8945_1387" x1="2.5" y1="23" x2="195" y2="23" gradientUnits="userSpaceOnUse">
<stop stop-color="#B53BFF"/>
<stop offset="1" stop-color="#07E993"/>
</linearGradient>
</defs>
</svg>
