<svg width="20" height="19" viewBox="0 0 20 19" fill="none" xmlns="http://www.w3.org/2000/svg">
<g filter="url(#filter0_d_8744_2776)">
<path d="M1.0355 1H1.11536C2.65502 1 4.19024 1 5.72989 1C5.7787 1 5.80976 1.01333 5.83638 1.05333C7.15419 2.82222 8.47199 4.58667 9.78979 6.35111C9.80754 6.37333 9.82085 6.39556 9.84304 6.42222C9.88297 6.37778 9.92291 6.33778 9.96284 6.29778C10.8547 5.33333 11.7421 4.36889 12.6339 3.40444C13.3616 2.61778 14.0893 1.83111 14.817 1.04444C14.8436 1.01333 14.8747 1 14.9146 1C15.3405 1 15.7665 1 16.1925 1H16.2635C14.3289 3.09333 12.4032 5.17778 10.4775 7.26222C12.6517 10.1733 14.8214 13.08 17 15.9956C16.9734 15.9956 16.9512 16 16.9334 16C15.3849 16 13.8364 16 12.2879 16C12.2479 16 12.2257 15.9822 12.1991 15.9511C10.7571 14.0222 9.31503 12.0889 7.87743 10.16C7.86855 10.1467 7.85524 10.1333 7.84193 10.1111C7.79756 10.1556 7.75763 10.2 7.72213 10.24C6.83472 11.2 5.94731 12.16 5.0599 13.12C4.1858 14.0667 3.3117 15.0089 2.4376 15.9556C2.41986 15.9778 2.38436 15.9956 2.35774 15.9956C1.92291 15.9956 1.48808 15.9956 1.05324 15.9956C1.03993 15.9956 1.02662 15.9956 1 15.9956C3.07654 13.7511 5.13977 11.5156 7.21187 9.27556C5.15308 6.52 3.09872 3.76444 1.0355 1ZM14.9279 14.9689C14.9146 14.9467 14.9057 14.9333 14.8924 14.92C14.5286 14.4356 14.1692 13.9511 13.8053 13.4667C12.4653 11.6756 11.1298 9.88 9.78979 8.08889C8.29451 6.08889 6.80366 4.08889 5.31281 2.08889C5.29063 2.05778 5.26844 2.04444 5.22407 2.04444C4.53633 2.04444 3.84859 2.04444 3.16084 2.04444C3.14309 2.04444 3.12535 2.04444 3.09872 2.04444C3.11647 2.07111 3.12978 2.08444 3.13866 2.10222C3.30727 2.32444 3.47587 2.55111 3.64004 2.77333C4.86467 4.41333 6.0893 6.05333 7.31392 7.69778C9.11093 10.1067 10.9079 12.5111 12.7049 14.92C12.7316 14.9556 12.7582 14.9689 12.8026 14.9689C13.4859 14.9689 14.1692 14.9689 14.8525 14.9689H14.919H14.9279Z" fill="#07E993"/>
</g>
<defs>
<filter id="filter0_d_8744_2776" x="0" y="0" width="20" height="19" filterUnits="userSpaceOnUse" color-interpolation-filters="sRGB">
<feFlood flood-opacity="0" result="BackgroundImageFix"/>
<feColorMatrix in="SourceAlpha" type="matrix" values="0 0 0 0 0 0 0 0 0 0 0 0 0 0 0 0 0 0 127 0" result="hardAlpha"/>
<feOffset dx="1" dy="1"/>
<feGaussianBlur stdDeviation="1"/>
<feComposite in2="hardAlpha" operator="out"/>
<feColorMatrix type="matrix" values="0 0 0 0 0 0 0 0 0 0 0 0 0 0 0 0 0 0 0.5 0"/>
<feBlend mode="normal" in2="BackgroundImageFix" result="effect1_dropShadow_8744_2776"/>
<feBlend mode="normal" in="SourceGraphic" in2="effect1_dropShadow_8744_2776" result="shape"/>
</filter>
</defs>
</svg>
